<?xml version="1.0" encoding="UTF-8" standalone="no"?>
<!DOCTYPE svg PUBLIC "-//W3C//DTD SVG 1.1//EN" "http://www.w3.org/Graphics/SVG/1.1/DTD/svg11.dtd">
<svg xmlns="http://www.w3.org/2000/svg" version="1.1" viewBox="0.00 0.00 500.00 500.00">
<g stroke-width="2.00" fill="none" stroke-linecap="butt">
<path stroke="#0967a4" vector-effect="non-scaling-stroke" d="
  M 357.54 165.09
  Q 357.38 164.95 357.20 164.99
  Q 356.83 165.09 356.80 165.48
  Q 355.85 179.12 351.57 192.23"
/>
<path stroke="#8326b2" vector-effect="non-scaling-stroke" d="
  M 351.57 192.23
  C 334.61 181.14 317.45 179.13 299.81 189.54"
/>
<path stroke="#0967a4" vector-effect="non-scaling-stroke" d="
  M 299.81 189.54
  Q 299.61 186.93 299.44 184.35
  C 298.71 173.55 290.79 166.04 280.41 164.24
  C 278.21 163.86 275.96 164.39 273.76 164.78"
/>
<path stroke="#8689c9" vector-effect="non-scaling-stroke" d="
  M 273.76 164.78
  Q 270.54 156.00 263.76 149.61
  Q 263.38 149.25 263.48 148.74
  C 264.66 142.43 265.85 137.42 265.42 132.52
  Q 265.37 131.89 264.77 132.08
  L 263.03 132.63"
/>
<path stroke="#081e8e" vector-effect="non-scaling-stroke" d="
  M 263.03 132.63
  Q 263.44 131.83 261.55 131.77
  A 0.66 0.63 -56.0 0 0 261.28 131.83
  L 257.24 133.88
  Q 256.56 134.23 256.11 133.61
  Q 248.34 122.91 242.46 111.11
  A 1.72 1.63 -58.7 0 1 242.28 110.27
  Q 242.33 109.23 241.43 108.89
  Q 240.39 107.44 239.05 108.87"
/>
<path stroke="#8689c9" vector-effect="non-scaling-stroke" d="
  M 239.05 108.87
  Q 238.94 107.96 238.63 107.58
  A 0.39 0.39 0.0 0 0 237.96 107.72
  Q 234.38 119.50 226.96 129.09"
/>
<path stroke="#0967a4" vector-effect="non-scaling-stroke" d="
  M 226.96 129.09
  C 229.54 112.46 214.85 99.56 199.73 95.47"
/>
<path stroke="#81dcd9" vector-effect="non-scaling-stroke" d="
  M 226.96 129.09
  L 217.04 136.79
  Q 216.62 137.12 216.14 136.88
  L 206.20 132.03
  A 0.67 0.67 0.0 0 0 205.24 132.70
  L 206.94 148.78
  A 0.60 0.56 -25.4 0 1 206.74 149.29
  Q 197.62 157.20 195.21 169.52"
/>
<path stroke="#2564be" vector-effect="non-scaling-stroke" d="
  M 195.21 169.52
  C 161.98 159.57 132.83 185.40 131.11 218.37"
/>
<path stroke="#03719f" vector-effect="non-scaling-stroke" d="
  M 131.11 218.37
  Q 109.94 230.95 101.72 254.37
  Q 101.61 254.68 101.27 254.72
  Q 101.06 254.74 100.85 254.89"
/>
<path stroke="#8093c4" vector-effect="non-scaling-stroke" d="
  M 239.05 108.87
  Q 246.07 122.93 255.31 135.82
  Q 255.63 136.26 256.11 136.02
  L 263.03 132.63"
/>
<path stroke="#81dcd9" vector-effect="non-scaling-stroke" d="
  M 273.76 164.78
  Q 278.15 188.34 256.29 195.69
  Q 255.78 195.87 256.07 196.32
  L 260.36 203.03
  A 0.48 0.47 73.7 0 0 260.76 203.25
  L 285.94 203.00"
/>
<path stroke="#fb9be8" vector-effect="non-scaling-stroke" d="
  M 285.94 203.00
  Q 290.82 205.90 292.40 207.81
  C 300.76 217.88 294.20 231.61 281.78 232.86"
/>
<path stroke="#8093c4" vector-effect="non-scaling-stroke" d="
  M 281.78 232.86
  L 228.11 232.81
  Q 227.67 232.81 227.81 233.23
  Q 233.49 250.63 214.99 255.57"
/>
<path stroke="#8689c9" vector-effect="non-scaling-stroke" d="
  M 214.99 255.57
  C 203.97 254.35 194.85 244.35 200.62 233.22
  A 0.39 0.38 -77.8 0 0 200.26 232.66
  C 192.25 233.06 186.08 233.77 179.87 226.84"
/>
<path stroke="#a287e3" vector-effect="non-scaling-stroke" d="
  M 179.87 226.84
  C 174.81 218.82 176.38 208.96 184.85 204.71
  C 190.83 201.71 202.66 202.91 209.50 203.05
  A 1.92 1.90 17.7 0 0 211.11 202.23
  L 215.27 196.23
  Q 215.55 195.83 215.07 195.70
  Q 195.14 190.29 195.21 169.52"
/>
<path stroke="#8326b2" vector-effect="non-scaling-stroke" d="
  M 369.14 222.68
  C 370.79 250.44 351.14 270.34 323.99 271.21"
/>
<path stroke="#7d30ad" vector-effect="non-scaling-stroke" d="
  M 323.99 271.21
  C 302.63 269.99 283.70 255.29 281.78 232.86"
/>
<path stroke="#0967a4" vector-effect="non-scaling-stroke" d="
  M 386.91 238.32
  Q 385.89 237.91 385.56 237.44
  Q 378.97 228.07 369.14 222.68"
/>
<path stroke="#7e79c3" vector-effect="non-scaling-stroke" d="
  M 369.14 222.68
  Q 366.29 204.21 351.57 192.23"
/>
<path stroke="#7e79c3" vector-effect="non-scaling-stroke" d="
  M 299.81 189.54
  Q 291.85 195.49 285.94 203.00"
/>
<path stroke="#2912ad" vector-effect="non-scaling-stroke" d="
  M 179.87 226.84
  Q 181.14 231.32 187.98 234.50
  Q 190.92 235.87 193.35 235.47
  C 194.96 235.20 195.69 235.40 196.92 236.26
  Q 197.33 236.55 197.14 237.01
  C 195.39 241.31 197.83 246.65 200.25 250.52
  C 202.87 254.74 208.94 256.45 213.45 256.90
  Q 214.20 256.98 214.39 257.35
  Q 214.61 257.77 214.60 258.54"
/>
<path stroke="#241ca8" vector-effect="non-scaling-stroke" d="
  M 214.60 258.54
  Q 210.25 264.18 207.94 265.24
  C 171.57 281.99 132.87 258.43 131.11 218.37"
/>
<path stroke="#081e8e" vector-effect="non-scaling-stroke" d="
  M 214.60 258.54
  Q 215.52 257.98 214.99 255.57"
/>
<path stroke="#081e8e" vector-effect="non-scaling-stroke" d="
  M 323.99 271.21
  Q 323.08 272.31 322.68 274.11"
/>
<path stroke="#0479a5" vector-effect="non-scaling-stroke" d="
  M 322.68 274.11
  Q 316.19 271.81 309.51 270.55
  Q 251.77 259.63 196.63 279.24
  C 166.71 289.88 131.69 312.75 130.64 348.44"
/>
<path stroke="#096faa" vector-effect="non-scaling-stroke" d="
  M 367.22 306.39
  C 358.23 288.50 341.35 280.07 322.68 274.11"
/>
<path stroke="#036a74" vector-effect="non-scaling-stroke" d="
  M 317.52 371.48
  L 321.22 363.76"
/>
<path stroke="#82e4e0" vector-effect="non-scaling-stroke" d="
  M 321.22 363.76
  L 335.49 347.78
  Q 335.93 347.30 335.35 346.99
  C 281.29 317.38 214.89 318.13 161.17 348.62
  A 0.51 0.51 0.0 0 0 161.03 349.39
  L 173.57 364.44"
/>
<path stroke="#036a74" vector-effect="non-scaling-stroke" d="
  M 173.57 364.44
  L 177.67 371.30
  Q 177.93 371.72 178.40 371.85
  C 187.66 374.35 196.23 375.54 205.26 379.26
  A 1.88 1.81 80.6 0 1 205.93 379.76
  L 206.58 380.52"
/>
<path stroke="#7f8492" vector-effect="non-scaling-stroke" d="
  M 321.22 363.76
  C 275.54 338.24 219.03 339.58 173.57 364.44"
/>
<path stroke="#7f8492" vector-effect="non-scaling-stroke" d="
  M 227.1770 172.2964
  A 8.65 8.25 1.5 0 0 218.7460 163.8228
  A 8.65 8.25 1.5 0 0 209.8830 171.8436
  A 8.65 8.25 1.5 0 0 218.3140 180.3172
  A 8.65 8.25 1.5 0 0 227.1770 172.2964"
/>
<path stroke="#7f8492" vector-effect="non-scaling-stroke" d="
  M 259.6906 174.0356
  A 8.56 8.22 13.0 0 0 253.1991 164.1007
  A 8.56 8.22 13.0 0 0 243.0094 170.1844
  A 8.56 8.22 13.0 0 0 249.5009 180.1193
  A 8.56 8.22 13.0 0 0 259.6906 174.0356"
/>
<path stroke="#7f8492" vector-effect="non-scaling-stroke" d="
  M 238.77 178.80
  C 238.69 183.00 232.88 183.30 231.78 179.13
  Q 231.65 178.61 231.11 178.57
  L 230.24 178.51
  Q 229.44 178.45 229.67 179.22
  C 232.55 188.94 244.24 181.40 239.86 178.25
  A 0.69 0.69 0.0 0 0 238.77 178.80"
/>
</g>
<path fill="#0d1493" d="
  M 357.54 165.09
  Q 357.38 164.95 357.20 164.99
  Q 356.83 165.09 356.80 165.48
  Q 355.85 179.12 351.57 192.23
  C 334.61 181.14 317.45 179.13 299.81 189.54
  Q 299.61 186.93 299.44 184.35
  C 298.71 173.55 290.79 166.04 280.41 164.24
  C 278.21 163.86 275.96 164.39 273.76 164.78
  Q 270.54 156.00 263.76 149.61
  Q 263.38 149.25 263.48 148.74
  C 264.66 142.43 265.85 137.42 265.42 132.52
  Q 265.37 131.89 264.77 132.08
  L 263.03 132.63
  Q 263.44 131.83 261.55 131.77
  A 0.66 0.63 -56.0 0 0 261.28 131.83
  L 257.24 133.88
  Q 256.56 134.23 256.11 133.61
  Q 248.34 122.91 242.46 111.11
  A 1.72 1.63 -58.7 0 1 242.28 110.27
  Q 242.33 109.23 241.43 108.89
  Q 240.39 107.44 239.05 108.87
  Q 238.94 107.96 238.63 107.58
  A 0.39 0.39 0.0 0 0 237.96 107.72
  Q 234.38 119.50 226.96 129.09
  C 229.54 112.46 214.85 99.56 199.73 95.47
  Q 232.89 67.75 275.00 72.50
  C 321.58 77.76 356.43 116.69 356.92 164.12
  Q 356.93 164.50 357.24 164.71
  Q 357.46 164.86 357.54 165.09
  Z"
/>
<path fill="#04b9b4" d="
  M 199.73 95.47
  C 214.85 99.56 229.54 112.46 226.96 129.09
  L 217.04 136.79
  Q 216.62 137.12 216.14 136.88
  L 206.20 132.03
  A 0.67 0.67 0.0 0 0 205.24 132.70
  L 206.94 148.78
  A 0.60 0.56 -25.4 0 1 206.74 149.29
  Q 197.62 157.20 195.21 169.52
  C 161.98 159.57 132.83 185.40 131.11 218.37
  Q 109.94 230.95 101.72 254.37
  Q 101.61 254.68 101.27 254.72
  Q 101.06 254.74 100.85 254.89
  C 72.37 219.55 79.27 163.75 120.45 141.22
  Q 138.34 131.43 159.29 133.76
  A 0.78 0.78 0.0 0 0 160.15 132.88
  C 157.44 112.71 174.67 93.79 195.26 95.58
  Q 197.91 95.81 199.73 95.47
  Z"
/>
<path fill="#fefefe" d="
  M 239.05 108.87
  Q 246.07 122.93 255.31 135.82
  Q 255.63 136.26 256.11 136.02
  L 263.03 132.63
  L 264.77 132.08
  Q 265.37 131.89 265.42 132.52
  C 265.85 137.42 264.66 142.43 263.48 148.74
  Q 263.38 149.25 263.76 149.61
  Q 270.54 156.00 273.76 164.78
  Q 278.15 188.34 256.29 195.69
  Q 255.78 195.87 256.07 196.32
  L 260.36 203.03
  A 0.48 0.47 73.7 0 0 260.76 203.25
  L 285.94 203.00
  Q 290.82 205.90 292.40 207.81
  C 300.76 217.88 294.20 231.61 281.78 232.86
  L 228.11 232.81
  Q 227.67 232.81 227.81 233.23
  Q 233.49 250.63 214.99 255.57
  C 203.97 254.35 194.85 244.35 200.62 233.22
  A 0.39 0.38 -77.8 0 0 200.26 232.66
  C 192.25 233.06 186.08 233.77 179.87 226.84
  C 174.81 218.82 176.38 208.96 184.85 204.71
  C 190.83 201.71 202.66 202.91 209.50 203.05
  A 1.92 1.90 17.7 0 0 211.11 202.23
  L 215.27 196.23
  Q 215.55 195.83 215.07 195.70
  Q 195.14 190.29 195.21 169.52
  Q 197.62 157.20 206.74 149.29
  A 0.60 0.56 -25.4 0 0 206.94 148.78
  L 205.24 132.70
  A 0.67 0.67 0.0 0 1 206.20 132.03
  L 216.14 136.88
  Q 216.62 137.12 217.04 136.79
  L 226.96 129.09
  Q 234.38 119.50 237.96 107.72
  A 0.39 0.39 0.0 0 1 238.63 107.58
  Q 238.94 107.96 239.05 108.87
  Z
  M 227.1770 172.2964
  A 8.65 8.25 1.5 0 0 218.7460 163.8228
  A 8.65 8.25 1.5 0 0 209.8830 171.8436
  A 8.65 8.25 1.5 0 0 218.3140 180.3172
  A 8.65 8.25 1.5 0 0 227.1770 172.2964
  Z
  M 259.6906 174.0356
  A 8.56 8.22 13.0 0 0 253.1991 164.1007
  A 8.56 8.22 13.0 0 0 243.0094 170.1844
  A 8.56 8.22 13.0 0 0 249.5009 180.1193
  A 8.56 8.22 13.0 0 0 259.6906 174.0356
  Z
  M 238.77 178.80
  C 238.69 183.00 232.88 183.30 231.78 179.13
  Q 231.65 178.61 231.11 178.57
  L 230.24 178.51
  Q 229.44 178.45 229.67 179.22
  C 232.55 188.94 244.24 181.40 239.86 178.25
  A 0.69 0.69 0.0 0 0 238.77 178.80
  Z"
/>
<path fill="#022889" d="
  M 263.03 132.63
  L 256.11 136.02
  Q 255.63 136.26 255.31 135.82
  Q 246.07 122.93 239.05 108.87
  Q 240.39 107.44 241.43 108.89
  Q 242.33 109.23 242.28 110.27
  A 1.72 1.63 -58.7 0 0 242.46 111.11
  Q 248.34 122.91 256.11 133.61
  Q 256.56 134.23 257.24 133.88
  L 261.28 131.83
  A 0.66 0.63 -56.0 0 1 261.55 131.77
  Q 263.44 131.83 263.03 132.63
  Z"
/>
<ellipse fill="#000926" cx="0.00" cy="0.00" transform="translate(218.53,172.07) rotate(1.5)" rx="8.65" ry="8.25"/>
<ellipse fill="#000926" cx="0.00" cy="0.00" transform="translate(251.35,172.11) rotate(13.0)" rx="8.56" ry="8.22"/>
<path fill="#04b9b4" d="
  M 299.81 189.54
  Q 291.85 195.49 285.94 203.00
  L 260.76 203.25
  A 0.48 0.47 73.7 0 1 260.36 203.03
  L 256.07 196.32
  Q 255.78 195.87 256.29 195.69
  Q 278.15 188.34 273.76 164.78
  C 275.96 164.39 278.21 163.86 280.41 164.24
  C 290.79 166.04 298.71 173.55 299.44 184.35
  Q 299.61 186.93 299.81 189.54
  Z"
/>
<path fill="#04b9b4" d="
  M 357.54 165.09
  C 382.24 169.58 398.58 189.55 396.99 214.73
  Q 396.12 228.44 386.91 238.32
  Q 385.89 237.91 385.56 237.44
  Q 378.97 228.07 369.14 222.68
  Q 366.29 204.21 351.57 192.23
  Q 355.85 179.12 356.80 165.48
  Q 356.83 165.09 357.20 164.99
  Q 357.38 164.95 357.54 165.09
  Z"
/>
<path fill="#450fc7" d="
  M 195.21 169.52
  Q 195.14 190.29 215.07 195.70
  Q 215.55 195.83 215.27 196.23
  L 211.11 202.23
  A 1.92 1.90 17.7 0 1 209.50 203.05
  C 202.66 202.91 190.83 201.71 184.85 204.71
  C 176.38 208.96 174.81 218.82 179.87 226.84
  Q 181.14 231.32 187.98 234.50
  Q 190.92 235.87 193.35 235.47
  C 194.96 235.20 195.69 235.40 196.92 236.26
  Q 197.33 236.55 197.14 237.01
  C 195.39 241.31 197.83 246.65 200.25 250.52
  C 202.87 254.74 208.94 256.45 213.45 256.90
  Q 214.20 256.98 214.39 257.35
  Q 214.61 257.77 214.60 258.54
  Q 210.25 264.18 207.94 265.24
  C 171.57 281.99 132.87 258.43 131.11 218.37
  C 132.83 185.40 161.98 159.57 195.21 169.52
  Z"
/>
<path fill="#000926" d="
  M 231.78 179.13
  C 232.88 183.30 238.69 183.00 238.77 178.80
  A 0.69 0.69 0.0 0 1 239.86 178.25
  C 244.24 181.40 232.55 188.94 229.67 179.22
  Q 229.44 178.45 230.24 178.51
  L 231.11 178.57
  Q 231.65 178.61 231.78 179.13
  Z"
/>
<path fill="#f838d1" d="
  M 351.57 192.23
  Q 366.29 204.21 369.14 222.68
  C 370.79 250.44 351.14 270.34 323.99 271.21
  C 302.63 269.99 283.70 255.29 281.78 232.86
  C 294.20 231.61 300.76 217.88 292.40 207.81
  Q 290.82 205.90 285.94 203.00
  Q 291.85 195.49 299.81 189.54
  C 317.45 179.13 334.61 181.14 351.57 192.23
  Z"
/>
<path fill="#022889" d="
  M 131.11 218.37
  C 132.87 258.43 171.57 281.99 207.94 265.24
  Q 210.25 264.18 214.60 258.54
  Q 215.52 257.98 214.99 255.57
  Q 233.49 250.63 227.81 233.23
  Q 227.67 232.81 228.11 232.81
  L 281.78 232.86
  C 283.70 255.29 302.63 269.99 323.99 271.21
  Q 323.08 272.31 322.68 274.11
  Q 316.19 271.81 309.51 270.55
  Q 251.77 259.63 196.63 279.24
  C 166.71 289.88 131.69 312.75 130.64 348.44
  C 99.89 326.59 90.07 290.66 101.12 255.21
  Q 101.18 255.03 101.06 254.88
  Q 100.94 254.72 100.85 254.89
  Q 101.06 254.74 101.27 254.72
  Q 101.61 254.68 101.72 254.37
  Q 109.94 230.95 131.11 218.37
  Z"
/>
<path fill="#0d1493" d="
  M 369.14 222.68
  Q 378.97 228.07 385.56 237.44
  Q 385.89 237.91 386.91 238.32
  Q 386.51 238.55 386.94 239.31
  C 398.35 259.73 393.95 283.94 376.73 299.73
  Q 374.14 302.10 367.22 306.39
  C 358.23 288.50 341.35 280.07 322.68 274.11
  Q 323.08 272.31 323.99 271.21
  C 351.14 270.34 370.79 250.44 369.14 222.68
  Z"
/>
<path fill="#0d1493" d="
  M 179.87 226.84
  C 186.08 233.77 192.25 233.06 200.26 232.66
  A 0.39 0.38 -77.8 0 1 200.62 233.22
  C 194.85 244.35 203.97 254.35 214.99 255.57
  Q 215.52 257.98 214.60 258.54
  Q 214.61 257.77 214.39 257.35
  Q 214.20 256.98 213.45 256.90
  C 208.94 256.45 202.87 254.74 200.25 250.52
  C 197.83 246.65 195.39 241.31 197.14 237.01
  Q 197.33 236.55 196.92 236.26
  C 195.69 235.40 194.96 235.20 193.35 235.47
  Q 190.92 235.87 187.98 234.50
  Q 181.14 231.32 179.87 226.84
  Z"
/>
<path fill="#05cac1" d="
  M 322.68 274.11
  C 341.35 280.07 358.23 288.50 367.22 306.39
  Q 376.76 331.50 363.05 351.27
  C 351.96 367.27 336.32 372.12 317.52 371.48
  L 321.22 363.76
  L 335.49 347.78
  Q 335.93 347.30 335.35 346.99
  C 281.29 317.38 214.89 318.13 161.17 348.62
  A 0.51 0.51 0.0 0 0 161.03 349.39
  L 173.57 364.44
  L 177.67 371.30
  Q 177.93 371.72 178.40 371.85
  C 187.66 374.35 196.23 375.54 205.26 379.26
  A 1.88 1.81 80.6 0 1 205.93 379.76
  L 206.58 380.52
  Q 205.05 382.13 202.07 383.34
  C 173.00 395.11 134.57 383.86 130.64 348.44
  C 131.69 312.75 166.71 289.88 196.63 279.24
  Q 251.77 259.63 309.51 270.55
  Q 316.19 271.81 322.68 274.11
  Z"
/>
<path fill="#fefefe" d="
  M 321.22 363.76
  C 275.54 338.24 219.03 339.58 173.57 364.44
  L 161.03 349.39
  A 0.51 0.51 0.0 0 1 161.17 348.62
  C 214.89 318.13 281.29 317.38 335.35 346.99
  Q 335.93 347.30 335.49 347.78
  L 321.22 363.76
  Z"
/>
<path fill="#000926" d="
  M 321.22 363.76
  L 317.52 371.48
  C 285.10 373.95 252.77 394.90 247.20 428.39
  A 0.30 0.30 0.0 0 1 246.61 428.39
  C 242.67 407.05 226.57 389.22 207.22 380.33
  Q 206.87 380.17 206.58 380.52
  L 205.93 379.76
  A 1.88 1.81 80.6 0 0 205.26 379.26
  C 196.23 375.54 187.66 374.35 178.40 371.85
  Q 177.93 371.72 177.67 371.30
  L 173.57 364.44
  C 219.03 339.58 275.54 338.24 321.22 363.76
  Z"
/>
</svg>
